<?xml version="1.0" encoding="UTF-8" standalone="no"?>
<svg
   id="svg4296"
   height="48"
   width="48"
   version="1.1"
   sodipodi:docname="com.manexim.codecard.svg"
   inkscape:version="1.1.1 (3bf5ae0d25, 2021-09-20)"
   xmlns:inkscape="http://www.inkscape.org/namespaces/inkscape"
   xmlns:sodipodi="http://sodipodi.sourceforge.net/DTD/sodipodi-0.dtd"
   xmlns:xlink="http://www.w3.org/1999/xlink"
   xmlns="http://www.w3.org/2000/svg"
   xmlns:svg="http://www.w3.org/2000/svg"
   xmlns:rdf="http://www.w3.org/1999/02/22-rdf-syntax-ns#"
   xmlns:cc="http://creativecommons.org/ns#"
   xmlns:dc="http://purl.org/dc/elements/1.1/">
  <sodipodi:namedview
     pagecolor="#ffffff"
     bordercolor="#666666"
     borderopacity="1"
     objecttolerance="10"
     gridtolerance="10"
     guidetolerance="10"
     inkscape:pageopacity="0"
     inkscape:pageshadow="2"
     inkscape:window-width="1920"
     inkscape:window-height="1019"
     id="namedview69"
     showgrid="true"
     inkscape:zoom="16"
     inkscape:cx="10.46875"
     inkscape:cy="22.28125"
     inkscape:window-x="0"
     inkscape:window-y="30"
     inkscape:window-maximized="1"
     inkscape:current-layer="svg4296"
     inkscape:document-rotation="0"
     inkscape:pagecheckerboard="0">
    <inkscape:grid
       type="xygrid"
       id="grid871"
       empspacing="4" />
    <inkscape:grid
       type="xygrid"
       id="grid873"
       empspacing="2"
       spacingx="0.5"
       spacingy="0.5"
       dotted="true" />
  </sodipodi:namedview>
  <defs
     id="defs4298">
    <linearGradient
       inkscape:collect="always"
       id="linearGradient940">
      <stop
         style="stop-color:#5aac46;stop-opacity:1"
         offset="0"
         id="stop936" />
      <stop
         style="stop-color:#3a7b29;stop-opacity:1"
         offset="1"
         id="stop938" />
    </linearGradient>
    <linearGradient
       id="linearGradient932">
      <stop
         offset="0"
         style="stop-color:#181818;stop-opacity:1"
         id="stop928" />
      <stop
         offset="1"
         style="stop-color:#181818;stop-opacity:0"
         id="stop930" />
    </linearGradient>
    <linearGradient
       id="linearGradient4199">
      <stop
         id="stop4201"
         style="stop-color:#ffffff;stop-opacity:1"
         offset="0" />
      <stop
         id="stop4203"
         style="stop-color:#fafafa;stop-opacity:1"
         offset="0.26238" />
      <stop
         id="stop4205"
         style="stop-color:#d4d4d4;stop-opacity:1"
         offset="0.704952" />
      <stop
         id="stop4207"
         style="stop-color:#abacae;stop-opacity:1"
         offset="1" />
    </linearGradient>
    <linearGradient
       id="linearGradient3462">
      <stop
         offset="0"
         style="stop-color:#ffffff;stop-opacity:1"
         id="stop3464" />
      <stop
         offset="0.03457849"
         style="stop-color:#ffffff;stop-opacity:0.23529412"
         id="stop3466" />
      <stop
         offset="0.96375686"
         style="stop-color:#ffffff;stop-opacity:0.15686275"
         id="stop3468" />
      <stop
         offset="1"
         style="stop-color:#ffffff;stop-opacity:0.39215687"
         id="stop3470" />
    </linearGradient>
    <linearGradient
       x1="302.85715"
       y1="366.64789"
       x2="302.85715"
       y2="609.50507"
       id="linearGradient19619"
       xlink:href="#linearGradient5048"
       gradientUnits="userSpaceOnUse"
       gradientTransform="matrix(0.08449704,0,0,0.01235294,-6.5396456,38.470822)" />
    <linearGradient
       id="linearGradient5048">
      <stop
         id="stop5050"
         style="stop-color:#181818;stop-opacity:0"
         offset="0" />
      <stop
         id="stop5056"
         style="stop-color:#181818;stop-opacity:1"
         offset="0.5" />
      <stop
         id="stop5052"
         style="stop-color:#181818;stop-opacity:0"
         offset="1" />
    </linearGradient>
    <radialGradient
       cx="605.71429"
       cy="486.64789"
       r="117.14286"
       fx="605.71429"
       fy="486.64789"
       id="radialGradient19616"
       xlink:href="#linearGradient5060"
       gradientUnits="userSpaceOnUse"
       gradientTransform="matrix(-0.0289166,0,0,0.01235294,21.026894,38.470848)" />
    <linearGradient
       id="linearGradient5060">
      <stop
         id="stop5062"
         style="stop-color:#181818;stop-opacity:1"
         offset="0" />
      <stop
         id="stop5064"
         style="stop-color:#181818;stop-opacity:0"
         offset="1" />
    </linearGradient>
    <radialGradient
       cx="605.71429"
       cy="486.64789"
       r="117.14286"
       fx="605.71429"
       fy="486.64789"
       id="radialGradient19613"
       xlink:href="#linearGradient932"
       gradientUnits="userSpaceOnUse"
       gradientTransform="matrix(0.02891661,0,0,0.01235294,26.973101,38.470848)" />
    <linearGradient
       y2="42.437775"
       x2="40.290417"
       y1="5.4143372"
       x1="40.290417"
       gradientTransform="matrix(1.1621621,0,0,0.91891888,-3.8918941,4.4459492)"
       gradientUnits="userSpaceOnUse"
       id="linearGradient4088"
       xlink:href="#linearGradient3462" />
    <radialGradient
       r="12.671875"
       fy="9.9571075"
       fx="7.1183534"
       cy="9.9571075"
       cx="7.1183534"
       gradientTransform="matrix(0,8.4371492,-12.947656,0,153.88012,-68.473106)"
       gradientUnits="userSpaceOnUse"
       id="radialGradient4091"
       xlink:href="#linearGradient4199" />
    <linearGradient
       inkscape:collect="always"
       xlink:href="#linearGradient940"
       id="linearGradient942"
       x1="24"
       y1="8.5"
       x2="24"
       y2="44.5"
       gradientUnits="userSpaceOnUse" />
    <linearGradient
       x1="38.999996"
       y1="14.999989"
       x2="38.999996"
       y2="47.999989"
       id="linearGradient3058"
       xlink:href="#linearGradient3924-1"
       gradientUnits="userSpaceOnUse"
       gradientTransform="translate(-5.0000084,-4.9999888)" />
    <linearGradient
       id="linearGradient3924-1">
      <stop
         id="stop3926-3"
         style="stop-color:#ffffff;stop-opacity:1"
         offset="0" />
      <stop
         id="stop3928-91"
         style="stop-color:#ffffff;stop-opacity:0.23529412"
         offset="0.02781997" />
      <stop
         id="stop3930-6"
         style="stop-color:#ffffff;stop-opacity:0.15686275"
         offset="0.97369862" />
      <stop
         id="stop3932-6"
         style="stop-color:#ffffff;stop-opacity:0.39215687"
         offset="1" />
    </linearGradient>
    <linearGradient
       x1="22.104254"
       y1="40.124432"
       x2="22.104254"
       y2="10.035408"
       id="linearGradient2580"
       xlink:href="#linearGradient5031"
       gradientUnits="userSpaceOnUse"
       gradientTransform="matrix(0.6655579,0,0,1.4407893,-0.4797477,-22.848874)" />
    <linearGradient
       id="linearGradient5031">
      <stop
         id="stop5033"
         style="stop-color:#a3a3a3;stop-opacity:1"
         offset="0" />
      <stop
         id="stop5035"
         style="stop-color:#bababa;stop-opacity:1"
         offset="1" />
    </linearGradient>
    <linearGradient
       x1="22.104254"
       y1="40.124432"
       x2="22.104254"
       y2="10.035408"
       id="linearGradient2580-3"
       xlink:href="#linearGradient5031"
       gradientUnits="userSpaceOnUse"
       gradientTransform="matrix(0.6655579,0,0,1.4407893,4.5202523,-10.848874)" />
  </defs>
  <metadata
     id="metadata4301">
    <rdf:RDF>
      <cc:Work
         rdf:about="">
        <dc:format>image/svg+xml</dc:format>
        <dc:type
           rdf:resource="http://purl.org/dc/dcmitype/StillImage" />
        <dc:title />
      </cc:Work>
    </rdf:RDF>
  </metadata>
  <g
     style="opacity:0.6"
     id="g3257">
    <path
       style="display:inline;overflow:visible;visibility:visible;fill:url(#radialGradient19613);fill-opacity:1;fill-rule:nonzero;stroke:none;stroke-width:1;marker:none"
       id="path2883"
       d="m 44.4,43.00013 c 0,0 0,2.999835 0,2.999835 1.489133,0.0056 3.6,-0.672111 3.6,-1.500111 0,-0.827998 -1.661761,-1.499723 -3.6,-1.499724 z"
       inkscape:connector-curvature="0" />
    <path
       style="display:inline;overflow:visible;visibility:visible;fill:url(#radialGradient19616);fill-opacity:1;fill-rule:nonzero;stroke:none;stroke-width:1;marker:none"
       id="path2881"
       d="m 3.6,43.00013 c 0,0 0,2.999835 0,2.999835 C 2.1108662,46.005612 0,45.327854 0,44.499854 0,43.671856 1.6617608,43.000131 3.6,43.00013 Z"
       inkscape:connector-curvature="0" />
    <rect
       style="display:inline;overflow:visible;visibility:visible;fill:url(#linearGradient19619);fill-opacity:1;fill-rule:nonzero;stroke:none;stroke-width:1;marker:none"
       id="rect2879"
       y="43"
       x="3.5999999"
       height="2.9999998"
       width="40.799999" />
  </g>
  <rect
     style="opacity:1;vector-effect:none;fill:url(#linearGradient942);fill-opacity:1;stroke:none;stroke-width:1;stroke-linecap:round;stroke-linejoin:round;stroke-miterlimit:4;stroke-dasharray:none;stroke-dashoffset:0;stroke-opacity:1"
     id="rect934"
     width="45"
     height="36"
     x="1.4999995"
     y="8.5"
     rx="4"
     ry="4" />
  <rect
     style="opacity:0.35;vector-effect:none;fill:none;fill-opacity:1;stroke:url(#linearGradient3058);stroke-width:1;stroke-linecap:round;stroke-linejoin:round;stroke-miterlimit:4;stroke-dasharray:none;stroke-dashoffset:0;stroke-opacity:1"
     id="rect6741-5-0-2-3"
     y="9.5"
     x="2.5"
     ry="3"
     rx="3"
     height="34"
     width="43" />
  <rect
     style="color:#000000;display:inline;overflow:visible;visibility:visible;opacity:0.5;fill:none;stroke:#0e141f;stroke-width:1;stroke-linecap:round;stroke-linejoin:round;stroke-miterlimit:4;stroke-dasharray:none;stroke-dashoffset:0;stroke-opacity:1;marker:none;enable-background:accumulate"
     id="rect5505-21-3-8-9-1-1"
     y="8.5"
     x="1.4999995"
     ry="4"
     rx="4"
     height="36"
     width="45" />
  <g
     id="g103"
     transform="translate(0.49999952,3.5)">
    <path
       style="display:inline;fill:#89adc2;fill-opacity:1;stroke:none"
       id="path4149"
       d="m 11,7 v 1 h 2.375 V 7 Z m 2.6875,0 v 1 h 2.25 V 7 Z M 16.25,7 v 1 h 1.96875 V 7 Z m 2.28125,0 v 1 h 0.875 V 7 Z m 1.1875,0 v 1 h 1.9375 V 7 Z M 22,7 v 1 h 5 V 7 Z M 11,9 v 1 h 3.78125 V 9 Z m 4.15625,0 v 1 h 1.8125 V 9 Z m 2.15625,0 v 1 h 0.84375 V 9 Z m 1.21875,0 v 1 h 1.625 V 9 Z m 2,0 v 1 h 1.625 V 9 Z M 22.5,9 v 1 h 2.65625 V 9 Z m 3.03125,0 v 1 H 29 V 9 Z M 11,11 v 1 h 4.1875 v -1 z m 4.5,0 v 1 H 20 V 11 Z M 11,13 v 1 h 2.3125 v -1 z m 2.625,0 v 1 h 2.15625 v -1 z m 2.46875,0 v 1 H 18 v -1 z m 3.8125,5 v 1 h 1.90625 v -1 z m 2.21875,0 v 1 h 1.90625 v -1 z m 2.21875,0 v 1 h 2.75 v -1 z m 3.09375,0 v 1 H 28 V 18 Z M 20,25 v 1 h 2.34375 v -1 z m 2.65625,0 v 1 h 2.1875 v -1 z m 2.5,0 v 1 H 27 V 25 Z M 20,27 v 1 h 1.875 v -1 z m 2.1875,0 v 1 H 27 v -1 z m 5.125,0 v 1 H 31 V 27 Z M 20,29 v 1 h 2.4375 v -1 z m 2.78125,0 v 1 h 4.28125 v -1 z m 4.59375,0 v 1 h 2.9375 V 29 Z M 20,31.125 v 0.96875 h 1.875 V 31.125 Z m 2.1875,0 v 0.96875 h 1.90625 V 31.125 Z m 2.21875,0 v 0.96875 H 27.125 V 31.125 Z m 3.03125,0 v 0.96875 H 28 V 31.125 Z m 0.875,0 v 0.96875 h 3.53125 V 31.125 Z M 19.9375,38 v 1 h 2.4375 v -1 z m 2.75,0 v 1 h 2.25 v -1 z m 2.59375,0 v 1 h 1.9375 v -1 z m 2.25,0 v 1 H 30.625 v -1 z m 3.4375,0 v 1 H 36 v -1 z" />
    <path
       style="display:inline;fill:#b78ed4;fill-opacity:1;stroke:none"
       id="path4063"
       d="m 11,16 v 1 h 3.0625 v -1 z m 0,2 v 1 h 3.09375 v -1 z" />
    <path
       style="display:inline;fill:#d48eb3;fill-opacity:1;stroke:none"
       id="path4061"
       d="m 14.40625,16 v 1 H 20 v -1 z m 0.03125,2 v 1 h 5.09375 v -1 z m 1.1875,16 v 1 h 4.59375 v -1 z m 4.9375,0 v 1 h 1.8125 v -1 z m 2.15625,0 v 1 h 4.3125 v -1 z m 4.65625,0 v 1 h 2.96875 v -1 z m 3.28125,0 v 1 h 1.15625 v -1 z m 1.5,0 v 1 h 0.6875 v -1 z m 1,0 v 1 H 35 V 34 Z M 17.125,36 v 1 h 0.8125 v -1 z m 1.03125,0 v 1 h 1.625 v -1 z m 1.875,0 v 1 h 1.625 v -1 z m 2.125,0 v 1 H 24.75 v -1 z m 2.90625,0 v 1 h 3.375 v -1 z m 3.84375,0 v 1 h 2.28125 v -1 z m 2.5625,0 v 1 H 32 v -1 z" />
    <path
       style="display:inline;fill:#de6161;fill-opacity:1;stroke:none"
       id="path4009"
       d="m 11,38 h 3.036746 v 1 H 11 Z" />
    <path
       style="display:inline;fill:url(#linearGradient2580-3);fill-opacity:1;stroke:none"
       id="path4007"
       d="m 13.75,21 v 1 H 16 V 21 Z M 11,23 v 1 h 1 v -1 z m 3.15625,2 v 1 H 16 v -1 z m 0.125,2 v 1 H 17 v -1 z m -0.34375,2 v 1 H 16 v -1 z m -0.375,2.15625 V 32.125 h 2.125 V 31.15625 Z M 11,34 v 1 h 4.28125 v -1 z m 0,2 v 1 h 3.6875 v -1 z m 3.96875,0 v 1 H 16.75 v -1 z m -0.625,2 v 1 h 3.34375 v -1 z" />
    <path
       style="display:inline;fill:#94d48e;fill-opacity:1;stroke:none"
       id="path5302"
       d="m 11,21 v 1 h 2.34375 v -1 z m 0,4 v 1 h 2.75 v -1 z m 0,2 v 1 h 2.9375 v -1 z m 0,2 v 1 h 2.53125 v -1 z m 0,2.15625 V 32.125 h 2.21875 v -0.96875 z" />
  </g>
</svg>
